<svg xmlns="http://www.w3.org/2000/svg" viewBox="0 0 500 500">
    <defs>
        <style>
            .cls-1{fill:#000;}.cls-2{fill:#fff;stroke-miterlimit:10;}.cls-2,.cls-4{stroke:#fff;stroke-width:12px;}.cls-3{fill:#231815;}.cls-4{fill:#f6b35e;stroke-linecap:round;stroke-linejoin:round;}</style>
    </defs>
    <g id="图层_2" data-name="图层 2">
        <g id="图层_1-2" data-name="图层 1">
            <rect class="cls-1" width="500" height="500" />
            <path class="cls-2"
                d="M201.21,86.46c-32.68,10.78-56.65,39.9-65.64,65.79C119.46,198.64,108.63,280,111.32,321.32c3.82,58.47,17.8,76.27,44.49,53.39s22.88-3.58,25.42,9.65,10.17,23.4,31.78,18.31,20.63-1.27,33.2,7.63,22.73-5.09,26.54-7.63,22.88-11.44,34.32-2.54,28,7.63,39.41-5.09,15.25-22.88,33-11.44,29.24-15.25,29.24-25.42,2.39-75.07-31.93-204.72C351.83,59,242.14,73,201.21,86.46Z" />
            <path class="cls-3"
                d="M194,191.59s0,35,17.58,34.32,17.16-26.06,17.16-30.93-.63-32-17.37-33.47S194,191.59,194,191.59Z" />
            <path class="cls-3"
                d="M284.06,193.5s0,34.95,17.58,34.32,17.16-26.06,17.16-30.93-.64-32-17.37-33.48S284.06,193.5,284.06,193.5Z" />
            <line class="cls-4" x1="179.5" y1="369.08" x2="177.01" y2="311.38" />
            <line class="cls-4" x1="270.22" y1="400.25" x2="263.87" y2="377.67" />
            <line class="cls-4" x1="362.29" y1="378.82" x2="358.62" y2="352.79" />
        </g>
    </g>
</svg>