<svg xmlns="http://www.w3.org/2000/svg" xmlns:xlink="http://www.w3.org/1999/xlink" width="500" height="500" viewBox="0 0 500 500" fill="none">
<rect x="0" y="0" width="0" height="0" fill="rgba(249, 249, 249, 1)" />
<g  clip-path="url(#clip-path-0)">
<path     fill="#FFFFFF" opacity="0" d="M0 500L500 500L500 0L0 0L0 500Z">
</path>
<path d="M177.485 229.487C211.828 229.487 237.586 238.072 254.758 255.244C271.929 272.415 280.515 298.174 280.515 332.517C317.72 335.379 341.332 341.818 351.349 351.835C361.366 361.852 367.805 385.464 370.667 422.669C448.908 344.428 448.908 217.575 370.667 139.334C292.427 61.0936 165.573 61.0937 87.3326 139.334C124.538 142.197 148.15 148.636 158.166 158.652C168.184 168.669 174.622 192.281 177.485 229.487Z" stroke="rgba(0, 0, 0, 1)" stroke-width="15" stroke-linejoin="round"     fill="#FFAB2E" >
</path>
<path    stroke="rgba(0, 0, 0, 1)" stroke-width="15" stroke-linejoin="round" stroke-linecap="round"  d="M87.3324 139.335L87.3324 422.669L177.485 229.487">
</path>
<path    stroke="rgba(0, 0, 0, 1)" stroke-width="15" stroke-linejoin="round" stroke-linecap="round"  d="M280.515 332.517L87.3325 422.669L370.667 422.669">
</path>
</g>
<defs>
<clipPath id="clip-path-0">
<path d="M0 500L500 500L500 0L0 0L0 500Z" fill="white"/>
</clipPath>
</defs>
</svg>
