<?xml version="1.0" standalone="no"?><!DOCTYPE svg PUBLIC "-//W3C//DTD SVG 1.1//EN" "http://www.w3.org/Graphics/SVG/1.1/DTD/svg11.dtd"><svg t="1709114178222" class="icon" viewBox="0 0 1024 1024" version="1.1" xmlns="http://www.w3.org/2000/svg" p-id="5115" xmlns:xlink="http://www.w3.org/1999/xlink" width="200" height="200"><path d="M73.130667 621.710222l260.949333 108.231111a272.128 272.128 0 0 0 95.089778 18.887111l335.217778 6.144c42.638222 0.796444 76.828444 4.494222 76.828444 42.382223v9.386666c0 38.4-35.527111 34.247111-78.506667 34.247111h-326.542222a273.038222 273.038222 0 0 1-101.632-19.456l-261.404444-100.408888v-99.413334zM568.604444 404.48l100.124445 125.155556a56.888889 56.888889 0 0 0 88.832 0l100.124444-125.155556c12.970667-16.213333 20.024889-36.352 20.024889-57.116444v-4.096A87.267556 87.267556 0 0 0 790.471111 256h-9.784889c-16.896 0-33.080889 6.712889-44.999111 18.631111a31.829333 31.829333 0 0 1-45.027555 0A63.630222 63.630222 0 0 0 645.632 256h-9.784889a87.267556 87.267556 0 0 0-87.267555 87.267556v4.124444c0 20.736 7.054222 40.874667 20.024888 57.059556z" fill="#FF9E2C" p-id="5116"></path><path d="M64 341.333333a21.333333 21.333333 0 0 1 21.333333-21.333333h85.333334c2.958222 0 5.859556 0.597333 8.533333 1.792l289.621333 126.691556a78.222222 78.222222 0 0 1 40.561778 102.485333l-19.342222 45.141333a78.222222 78.222222 0 0 1-102.741333 41.073778l-97.024-41.585778a21.333333 21.333333 0 0 1 16.782222-39.224889l97.052444 41.614223a35.555556 35.555556 0 0 0 46.705778-18.688l19.342222-45.141334a35.555556 35.555556 0 0 0-18.432-46.592L166.200889 362.666667H85.333333a21.333333 21.333333 0 0 1-21.333333-21.333334z" fill="#28303F" p-id="5117"></path><path d="M459.804444 568.689778l153.713778 76.856889a149.333333 149.333333 0 0 0 66.787556 15.786666H796.444444A78.222222 78.222222 0 0 1 874.666667 739.555556v56.888888A78.222222 78.222222 0 0 1 796.444444 874.666667H395.093333a248.888889 248.888889 0 0 1-111.303111-26.282667L75.804444 744.391111a21.333333 21.333333 0 0 1 19.057778-38.172444l207.957334 103.964444a206.222222 206.222222 0 0 0 92.245333 21.788445H796.444444c19.626667 0 35.555556-15.928889 35.555556-35.555556v-56.888889c0-19.626667-15.928889-35.555556-35.555556-35.555555h-116.138666a192 192 0 0 1-85.902222-20.280889l-153.685334-76.856889 19.057778-38.172445zM625.123556 192a91.790222 91.790222 0 0 0-91.790223 91.818667v6.940444c0 20.992 7.139556 41.358222 20.252445 57.742222l143.985778 179.996445a35.555556 35.555556 0 0 0 55.523555 0l143.985778-179.968a92.444444 92.444444 0 0 0 20.252444-57.742222v-6.968889a91.790222 91.790222 0 0 0-91.790222-91.818667h-12.714667a61.155556 61.155556 0 0 0-43.235555 17.92 62.577778 62.577778 0 0 1-88.519111 0 61.155556 61.155556 0 0 0-43.235556-17.92h-12.714666zM490.666667 283.818667a134.456889 134.456889 0 0 1 134.456889-134.485334h12.714666a103.822222 103.822222 0 0 1 73.386667 30.435556 19.911111 19.911111 0 0 0 28.188444 0 103.822222 103.822222 0 0 1 73.415111-30.435556h12.714667a134.485333 134.485333 0 0 1 134.456889 134.485334v6.940444a135.111111 135.111111 0 0 1-29.582222 84.423111l-144.014222 179.968a78.222222 78.222222 0 0 1-122.140445 0L520.248889 375.182222a135.111111 135.111111 0 0 1-29.610667-84.423111v-6.940444z" fill="#28303F" p-id="5118"></path></svg>