<?xml version="1.0" encoding="utf-8" ?>
<svg xmlns="http://www.w3.org/2000/svg" xmlns:xlink="http://www.w3.org/1999/xlink" width="1024" height="1024">
	<path fill="white" d="M0 0L1024 0L1024 1024L0 1024L0 0Z"/>
	<path d="M506.318 10.7252C524.824 10.0205 543.556 11.2754 561.938 13.3656C609.249 18.7452 659.197 30.7134 697.008 61.2072C746.665 101.256 779.298 171.832 786.106 234.49C797.446 238.87 808.538 244.219 819.385 249.694C853.738 267.032 905.683 299.141 918.14 337.731C923.277 353.645 922.591 369.103 914.829 384.061C900.116 412.41 865.485 429.898 836.484 440.161C825.142 444.176 813.382 447.246 801.888 450.818C802.233 453.311 802.704 455.769 803.185 458.238C805.089 458.937 807.003 459.637 808.854 460.47Q810.302 461.119 811.715 461.839Q813.129 462.559 814.506 463.347Q815.882 464.135 817.219 464.991Q818.555 465.846 819.847 466.766Q821.14 467.686 822.385 468.668Q823.63 469.651 824.826 470.694Q826.022 471.736 827.165 472.837Q828.308 473.937 829.395 475.092Q830.482 476.248 831.511 477.455Q832.54 478.662 833.508 479.919Q834.477 481.175 835.382 482.478Q836.287 483.781 837.128 485.127Q837.968 486.473 838.74 487.858Q839.513 489.244 840.217 490.665Q840.92 492.087 841.553 493.542Q842.186 494.997 842.746 496.481C851.493 519.905 845.885 546.293 835.787 568.331C825.787 590.154 807.412 612.26 784.346 620.759C768.666 626.536 757.227 623.062 742.78 616.361C702.963 694.568 643.203 741.894 561.429 771.63C561.698 782.088 564.028 793.913 567.047 803.916C568.21 807.768 570.042 815.573 573.367 818.102Q574.221 818.748 575.239 819.076C577.991 819.939 581.075 820.123 583.904 820.783C588.196 821.786 592.461 823.241 596.629 824.676C618.424 832.179 640.071 840.585 660.419 851.464C708.945 877.408 753.009 915.044 783.18 961.28C785.349 964.603 793.456 975.725 794.09 978.94C794.311 980.062 794.22 980.803 793.618 981.782C792.813 983.09 791.67 984.324 790.058 984.523C787.847 984.796 785.863 983.185 784.469 981.67C779.815 976.611 773.231 964.091 768.734 957.756C754.382 937.542 726.82 906.359 706.004 892.965L705.331 892.536C713.743 922.579 717.771 962.927 716.771 994.231C716.643 998.242 717.083 1003.17 715.932 1007.01C715.444 1008.64 714.659 1010.14 713.029 1010.88C711.793 1011.44 710.153 1011.72 708.912 1011.04C705.903 1009.39 706.27 1003.94 706.461 1001.07C709.101 961.342 702.568 922.038 692.623 883.692C676.859 869.421 641.728 852.084 621.37 844.608C613.632 863.537 603.422 880.736 587.78 894.264C563.093 915.614 527.202 924.253 495.065 922.079C477.575 921.62 459.836 917.436 443.609 910.985C412.776 898.728 390.842 876.285 377.729 845.985C372.827 847.583 367.973 850.02 363.275 852.146Q348.456 858.937 334.204 866.847Q319.952 874.758 306.351 883.742C298.402 911.894 290.637 940.815 287.574 969.961Q286.373 980.909 286.742 991.917C286.9 995.973 287.608 1000.23 287.465 1004.25C287.426 1005.33 287.122 1006.4 286.485 1007.28C285.371 1008.82 283.783 1009.47 281.988 1009.77C280.54 1009.46 279.809 1009 279.029 1007.7C276.451 1003.41 276.563 996.434 276.469 991.554C275.831 958.136 284.971 924.897 293.73 892.9C270.284 909.382 250.427 931.436 232.849 953.877Q226.275 962.329 220.8 971.53C218.536 975.347 216.589 979.618 213.982 983.197C213.277 984.165 212.512 985.026 211.389 985.515C210.124 986.065 208.761 986.096 207.501 985.505C206.272 984.929 205.349 983.822 204.938 982.536C203.518 978.091 210.069 969.421 212.48 965.593C253.854 899.896 320.646 854.601 393.054 829.203C404.256 825.273 415.964 820.819 427.544 818.198C436.368 804.37 443.624 787.033 444.085 770.446Q438.568 768.427 433.147 766.164C365.946 738.313 295.143 685.548 266.591 616.598C256.439 621.338 246.109 623.715 234.878 622.059C214.988 619.127 198.695 603.896 187.283 588.252C171.372 566.44 160.581 536.169 164.863 508.994C167.293 493.569 174.364 479.059 187.215 469.757C198.726 461.425 211.294 460.378 224.952 462.477L222.962 453.274C210.782 448.372 198.154 444.689 185.995 439.656C156.938 427.63 120.575 406.778 108.227 376.552C101.865 360.978 102.898 344.413 109.502 329.116C128.974 284.011 191.921 252.355 235.101 235.047C236.133 226.412 238.708 217.663 240.785 209.207C252.286 162.382 272.178 112.939 305.717 77.3897C354.034 26.1778 439.26 12.6135 506.318 10.7252Z"/>
	<path fill="white" d="M213.07 471.212C218.769 471.087 223.109 472.785 228.209 475.1C232.167 486.257 236.816 495.725 243.481 505.507C243.734 540.43 250.938 574.063 262.291 606.94C249.49 612.309 240.88 614.005 227.341 609.753C221.32 607.388 215.731 603.486 210.846 599.295C190.765 582.073 176.284 553.094 174.459 526.717C173.416 511.643 176.811 495.199 187.061 483.625C194.164 475.603 202.453 471.913 213.07 471.212Z"/>
	<path fill="white" d="M801.515 467.527C801.877 467.64 802.242 467.744 802.595 467.881C815.517 472.879 827.703 484.263 833.034 497.062C840.931 516.022 838.069 538.513 830.47 557.062C820.907 580.411 804.461 601.816 780.755 611.71C780.258 611.879 779.762 612.05 779.26 612.203C766.833 615.992 757.696 613.196 746.573 607.213Q748.643 602.147 750.506 597.001Q752.369 591.855 754.022 586.638Q755.675 581.421 757.115 576.141Q758.555 570.861 759.78 565.527Q761.005 560.193 762.012 554.814Q763.02 549.435 763.809 544.02Q764.597 538.604 765.165 533.161Q765.734 527.718 766.081 522.256C766.891 508.994 766.497 495.575 767.623 482.343C777.939 476.55 790.583 472.504 801.515 467.527Z"/>
	<path fill="white" d="M454.249 773.556C461.897 775.336 469.481 777.464 477.209 778.87C502.19 783.416 526.8 781.521 551.134 774.598C553.646 795.873 557.54 819.68 573.892 834.961C565.358 846.898 555.338 854.815 542.153 861.167C521.996 869.9 500.993 872.484 479.334 867.881C459.427 863.651 437.322 852.549 425.99 834.96C443.528 819.332 450.515 795.985 454.249 773.556Z"/>
	<path fill="white" d="M498.419 161.744C585.518 159.422 690.509 172.082 771.054 205.616C773.525 213.42 775.268 222.492 775.711 230.649C761.355 225.853 747.228 220.52 732.643 216.405C663.938 197.024 592.372 189.149 521.141 188.243C443.19 188.472 371.65 196.15 296.053 215.843C279.019 220.28 262.414 226.218 245.514 231.083C247.857 222.845 249.44 214.414 251.861 206.209C264.669 199.729 279.708 195.929 293.401 191.87Q311.931 186.413 330.723 181.941Q349.515 177.469 368.517 173.994Q387.519 170.519 406.677 168.051Q425.836 165.583 445.098 164.128C462.824 162.762 480.651 162.287 498.419 161.744Z"/>
	<path fill="white" d="M373.997 422.196C374.092 422.183 374.187 422.166 374.283 422.157Q375.305 422.068 376.33 422.005Q377.354 421.942 378.38 421.904Q379.406 421.867 380.432 421.855Q381.458 421.844 382.485 421.859Q383.511 421.873 384.536 421.913Q385.562 421.954 386.586 422.02Q387.61 422.086 388.633 422.178Q389.655 422.27 390.675 422.388Q391.694 422.506 392.71 422.649Q393.727 422.793 394.739 422.962Q395.751 423.131 396.759 423.325Q397.767 423.52 398.77 423.74Q399.772 423.96 400.769 424.205Q401.765 424.45 402.756 424.72Q403.746 424.99 404.729 425.286Q405.712 425.581 406.687 425.9Q407.662 426.22 408.629 426.565Q409.596 426.909 410.554 427.277Q411.512 427.646 412.46 428.039Q413.409 428.431 414.347 428.848Q415.285 429.264 416.212 429.704Q417.139 430.144 418.055 430.607Q418.971 431.071 419.875 431.557Q420.779 432.043 421.67 432.552Q422.562 433.061 423.44 433.592Q424.318 434.123 425.183 434.676Q426.047 435.229 426.898 435.804Q427.748 436.379 428.584 436.975Q429.419 437.571 430.239 438.188Q431.06 438.805 431.864 439.442Q432.669 440.08 433.457 440.737Q434.245 441.395 435.016 442.072Q435.785 442.733 436.537 443.413Q437.289 444.092 438.023 444.79Q438.758 445.488 439.476 446.204Q440.194 446.92 440.893 447.654Q441.593 448.387 442.274 449.138Q442.955 449.888 443.618 450.655Q444.28 451.422 444.924 452.206Q445.567 452.989 446.191 453.788Q446.815 454.587 447.419 455.401Q448.023 456.215 448.606 457.044Q449.19 457.872 449.753 458.715Q450.316 459.558 450.858 460.415Q451.4 461.271 451.921 462.141Q452.441 463.011 452.94 463.893Q453.439 464.775 453.917 465.669Q454.394 466.564 454.848 467.47Q455.303 468.375 455.736 469.292Q456.168 470.209 456.578 471.136Q456.987 472.063 457.374 473Q457.76 473.937 458.124 474.884Q458.487 475.83 458.827 476.785Q459.167 477.74 459.483 478.703Q459.799 479.666 460.091 480.637Q460.383 481.607 460.651 482.585Q460.92 483.562 461.164 484.546Q461.408 485.53 461.627 486.519Q461.847 487.509 462.042 488.504Q462.237 489.498 462.407 490.498Q462.578 491.497 462.723 492.5Q462.869 493.503 462.99 494.509Q463.111 495.516 463.207 496.525Q463.303 497.534 463.374 498.545C464.73 519.306 458.218 541.891 444.356 557.648C430.299 573.626 410.633 581.964 389.624 583.244C370.61 585.046 347.281 575.731 332.579 564.077C316.04 550.966 303.505 531.36 301.084 510.156C298.647 488.806 304.755 468.276 318.251 451.613C332.181 434.414 352.125 424.507 373.997 422.196Z"/>
	<path d="M388.758 453.183C393.774 452.491 399.496 452.876 404.501 453.662C419.499 456.02 434.014 464.261 442.851 476.714C444.624 479.212 446.26 481.885 445.714 485.036C445.036 486.217 444.599 486.515 443.369 487.081C438.75 486.614 433.21 478.768 429.339 475.816Q426.763 473.848 423.941 472.253Q421.12 470.657 418.106 469.463C397.84 461.545 377.518 466.561 358.382 475.021C350.049 478.712 340.244 482.928 333.52 489.106C333.289 499.043 334.467 508.091 337.086 517.674C328.72 508.214 323.276 497.118 323.504 484.306C331.438 474.793 356.046 462.515 367.816 458.266C374.629 455.806 381.564 454.042 388.758 453.183Z"/>
	<path d="M398.612 477.692C406.63 477.032 415.781 480.269 422.002 485.261Q422.64 485.783 423.251 486.336Q423.863 486.888 424.448 487.469Q425.032 488.05 425.588 488.659Q426.144 489.267 426.67 489.902Q427.196 490.537 427.691 491.196Q428.185 491.855 428.648 492.537Q429.11 493.22 429.539 493.923Q429.968 494.627 430.363 495.351Q430.758 496.074 431.117 496.816Q431.476 497.558 431.8 498.316Q432.123 499.074 432.409 499.847Q432.696 500.62 432.945 501.406Q433.193 502.192 433.404 502.988Q433.615 503.785 433.787 504.591Q433.959 505.397 434.092 506.211Q434.225 507.024 434.319 507.843Q434.405 508.676 434.45 509.513Q434.495 510.35 434.498 511.188Q434.502 512.026 434.464 512.863Q434.426 513.7 434.347 514.534Q434.268 515.368 434.148 516.198Q434.028 517.027 433.867 517.849Q433.706 518.671 433.505 519.485Q433.304 520.298 433.062 521.101Q432.821 521.903 432.541 522.693Q432.26 523.482 431.941 524.257Q431.622 525.032 431.265 525.79Q430.909 526.548 430.515 527.288Q430.121 528.027 429.691 528.747Q429.261 529.466 428.796 530.163Q428.332 530.86 427.833 531.534Q427.334 532.207 426.803 532.855C420.006 541.09 411.316 544.913 400.881 545.928C392.659 545.804 385.374 543.603 378.848 538.537C371.11 532.529 365.44 523.099 364.276 513.314C363.293 505.046 365.929 496.865 371.169 490.442C377.887 482.205 388.342 478.664 398.612 477.692Z"/>
	<path fill="white" d="M384.309 491.616C385.811 491.728 387.367 491.899 388.775 492.472C390.586 493.21 392.111 494.765 392.881 496.554Q393.025 496.894 393.134 497.248Q393.243 497.601 393.315 497.963Q393.387 498.326 393.421 498.694Q393.455 499.062 393.452 499.432Q393.448 499.801 393.407 500.169Q393.366 500.536 393.287 500.897Q393.208 501.258 393.093 501.609Q392.978 501.961 392.827 502.298C391.639 505.02 389.751 506.113 387.107 507.186C385.094 507.21 383.07 507.246 381.25 506.269C379.304 505.224 377.707 503.325 377.08 501.199Q376.973 500.849 376.903 500.489Q376.833 500.13 376.801 499.765Q376.768 499.401 376.773 499.035Q376.778 498.669 376.82 498.305Q376.863 497.941 376.942 497.584Q377.022 497.227 377.138 496.88Q377.254 496.532 377.405 496.199Q377.556 495.865 377.74 495.549C379.237 492.941 381.537 492.245 384.309 491.616Z"/>
	<path fill="white" d="M630.673 421.68C630.752 421.668 630.83 421.651 630.909 421.644C652.735 419.731 675.697 426.965 692.697 440.721Q694.206 441.955 695.653 443.262Q697.1 444.568 698.481 445.944Q699.863 447.319 701.176 448.76Q702.489 450.201 703.73 451.705Q704.971 453.208 706.138 454.77Q707.304 456.332 708.393 457.95Q709.482 459.567 710.49 461.235Q711.499 462.903 712.426 464.618Q713.352 466.334 714.193 468.092Q715.035 469.851 715.79 471.648Q716.545 473.446 717.211 475.278Q717.878 477.11 718.454 478.972Q719.03 480.835 719.515 482.723Q720 484.611 720.393 486.521Q720.785 488.43 721.084 490.357Q721.382 492.283 721.587 494.222Q721.688 495.223 721.764 496.227Q721.84 497.23 721.892 498.236Q721.943 499.241 721.97 500.247Q721.997 501.253 721.999 502.259Q722.002 503.266 721.979 504.272Q721.957 505.278 721.909 506.283Q721.862 507.288 721.79 508.292Q721.719 509.296 721.622 510.298Q721.526 511.3 721.404 512.299Q721.283 513.298 721.138 514.294Q720.992 515.29 720.822 516.282Q720.653 517.273 720.458 518.261Q720.264 519.248 720.046 520.231Q719.827 521.213 719.585 522.19Q719.342 523.167 719.076 524.137Q718.81 525.108 718.52 526.072Q718.23 527.035 717.916 527.992Q717.602 528.948 717.265 529.896Q716.928 530.844 716.568 531.784Q716.208 532.724 715.825 533.654Q715.441 534.585 715.036 535.506Q714.63 536.427 714.201 537.338Q713.773 538.248 713.322 539.148Q712.872 540.048 712.399 540.937Q711.927 541.825 711.432 542.702Q710.938 543.579 710.423 544.443Q709.907 545.307 709.37 546.159Q708.834 547.01 708.276 547.848Q707.719 548.686 707.141 549.51Q706.564 550.334 705.966 551.144Q705.368 551.953 704.75 552.748Q704.133 553.543 703.496 554.322C689.808 570.877 670.387 580.604 649.12 582.724C649.032 582.743 648.944 582.77 648.854 582.782C628.9 585.436 605.65 578.891 589.731 566.685C572.997 553.855 561.794 535.464 559.092 514.479C556.308 492.861 561.227 470.335 574.706 452.914C588.596 434.963 608.263 424.48 630.673 421.68Z"/>
	<path d="M617.122 453.202C634.794 451.722 652.358 456.901 667.407 465.991C680.171 473.701 692.212 485.254 695.891 500.101C695.113 502.63 694.293 505.331 692.742 507.505C691.298 509.53 688.982 511.289 686.448 511.537C684.967 511.681 683.429 511.375 682.331 510.298C681.461 509.444 681.08 508.287 681.038 507.096C680.922 503.831 682.965 502.088 684.997 499.872C680.924 490.544 673.857 484.107 665.773 478.223C660.729 474.881 655.552 472.008 649.876 469.872C627.448 461.433 605.549 462.365 584.816 474.661C581.3 476.746 578.075 482.093 574.284 483.242C573.078 483.608 571.568 483.304 570.497 482.729C569.501 482.194 568.777 481.083 568.651 479.954C568.436 478.025 569.643 476.223 570.802 474.806C572.693 472.495 575.148 470.619 577.465 468.756C589.173 459.342 602.214 454.649 617.122 453.202Z"/>
	<path d="M618.293 475.606C626.176 474.762 634.252 476.11 641.106 480.212C649.011 484.944 654.071 492.715 656.261 501.57C658.665 511.292 656.789 521.744 651.591 530.262C645.909 539.571 637.708 543.575 627.42 546.051C618.597 547.075 610.204 545.382 602.705 540.51Q601.982 540.039 601.284 539.532Q600.585 539.025 599.913 538.484Q599.241 537.943 598.596 537.369Q597.952 536.796 597.337 536.191Q596.722 535.585 596.137 534.95Q595.553 534.315 595.001 533.652Q594.449 532.989 593.931 532.299Q593.413 531.609 592.929 530.894Q592.446 530.179 591.999 529.441Q591.552 528.703 591.142 527.944Q590.733 527.184 590.361 526.406Q589.99 525.627 589.657 524.83Q589.325 524.034 589.033 523.222Q588.741 522.41 588.49 521.585Q588.238 520.759 588.028 519.922Q587.818 519.085 587.65 518.239Q587.473 517.391 587.339 516.534Q587.205 515.678 587.113 514.816Q587.022 513.954 586.974 513.089Q586.926 512.223 586.921 511.357Q586.916 510.49 586.954 509.624Q586.993 508.758 587.075 507.895Q587.156 507.033 587.281 506.175Q587.406 505.317 587.573 504.467Q587.74 503.616 587.95 502.775Q588.16 501.934 588.411 501.105Q588.663 500.275 588.955 499.46Q589.248 498.644 589.581 497.844Q589.914 497.043 590.286 496.261Q590.659 495.478 591.07 494.715Q591.481 493.952 591.93 493.211Q592.379 492.469 592.864 491.751C598.925 482.777 607.801 477.616 618.293 475.606Z"/>
	<path fill="white" d="M601.937 491.547C603.211 491.392 604.477 491.253 605.758 491.423C608.222 491.751 610.675 493.137 612.104 495.19C613.172 496.724 613.602 498.576 613.224 500.418C612.609 503.417 610.486 504.907 608.08 506.508C606.756 506.868 605.459 507.198 604.074 507.066C602.148 506.884 600.217 505.849 598.99 504.354C597.48 502.512 597.032 500.137 597.345 497.813C597.743 494.857 599.667 493.229 601.937 491.547Z"/>
	<path fill="white" d="M573.712 298.556C580.802 299.505 588.081 299.589 595.13 300.789C604.261 302.343 614.466 311.41 619.94 318.699C622.737 322.423 624.903 326.585 627.665 330.317C628.934 332.031 630.959 334.019 633.219 334.139C634.405 334.202 635.803 333.585 636.57 332.652C637.31 331.753 637.631 330.782 637.607 329.619C637.436 321.359 624.802 308.719 619.007 303.234C638.767 307.386 658.626 310.636 678.062 316.248C698.279 369.359 723.492 423.821 755.517 470.831C754.993 476.352 755.33 481.894 755.525 487.426Q742.197 488.253 728.895 489.438C725.109 473.902 720.485 459.625 710.177 447.054Q709.462 446.17 708.725 445.305Q707.988 444.44 707.229 443.593Q706.47 442.747 705.691 441.919Q704.911 441.092 704.111 440.285Q703.311 439.477 702.491 438.69Q701.671 437.903 700.831 437.137Q699.992 436.37 699.133 435.626Q698.274 434.881 697.397 434.158Q696.52 433.434 695.625 432.734Q694.73 432.033 693.818 431.354Q692.906 430.676 691.977 430.021Q691.048 429.366 690.103 428.735Q689.158 428.103 688.197 427.495Q687.236 426.888 686.261 426.304Q685.285 425.721 684.295 425.162Q683.305 424.604 682.301 424.07Q681.298 423.537 680.281 423.028Q679.264 422.52 678.235 422.038Q677.206 421.555 676.165 421.098Q675.124 420.642 674.072 420.212Q673.019 419.781 671.957 419.378Q670.894 418.974 669.822 418.597Q668.749 418.22 667.668 417.87Q666.586 417.52 665.496 417.198Q664.406 416.875 663.309 416.58Q662.211 416.285 661.106 416.017Q660.001 415.75 658.89 415.51Q657.779 415.27 656.662 415.059Q655.545 414.847 654.423 414.663Q653.302 414.48 652.176 414.324Q651.05 414.169 649.92 414.042Q648.79 413.915 647.658 413.816Q646.546 413.702 645.432 413.616Q644.318 413.53 643.203 413.471Q642.087 413.413 640.97 413.382Q639.853 413.351 638.735 413.348Q637.618 413.345 636.501 413.37Q635.384 413.395 634.268 413.447Q633.152 413.5 632.037 413.58Q630.923 413.66 629.81 413.768Q628.698 413.876 627.589 414.011Q626.48 414.147 625.375 414.31Q624.269 414.472 623.168 414.663Q622.067 414.853 620.971 415.071Q619.875 415.289 618.785 415.533Q617.695 415.778 616.611 416.05Q615.527 416.322 614.45 416.62Q613.374 416.919 612.305 417.244Q611.236 417.569 610.175 417.921Q609.115 418.273 608.063 418.651Q607.012 419.029 605.97 419.433Q604.928 419.837 603.897 420.266Q602.865 420.696 601.845 421.151Q600.824 421.607 599.815 422.087Q598.807 422.567 597.81 423.073Q596.813 423.578 595.83 424.108Q594.846 424.638 593.876 425.192Q592.905 425.746 591.949 426.324Q590.993 426.902 590.051 427.504Q589.11 428.106 588.184 428.731Q587.257 429.355 586.347 430.003Q585.436 430.651 584.542 431.321Q583.648 431.991 582.771 432.683Q581.894 433.375 581.034 434.089C562.329 449.862 551.818 473.083 549.851 497.15Q543.387 493.557 536.415 491.093C513.76 483.036 493.206 484.537 471.719 494.726C467.331 472.72 460.118 454.621 443.889 438.602C427.208 422.137 404.347 413.835 381.033 414.001C355.403 414.182 332.981 424.155 315.103 442.371C302.887 455.967 296.396 471.434 292.61 489.09C283.614 488.983 274.602 488.654 265.665 487.569C267.728 451.294 272.064 417.332 289.621 384.878C324.529 376.216 372.487 346.79 400.853 324.373C394.33 335.419 387.56 346.007 380.141 356.478Q377.991 356.585 375.846 356.767Q373.701 356.95 371.564 357.208Q369.426 357.467 367.3 357.8Q365.173 358.134 363.059 358.543Q360.946 358.951 358.848 359.434Q356.75 359.917 354.67 360.473Q352.591 361.03 350.532 361.66Q348.473 362.29 346.438 362.992Q344.403 363.694 342.394 364.467Q340.385 365.241 338.405 366.084Q336.424 366.928 334.475 367.842Q332.525 368.755 330.609 369.737Q328.694 370.718 326.813 371.767Q324.933 372.815 323.091 373.93Q321.25 375.044 319.448 376.223Q317.647 377.401 315.888 378.643C311.402 381.835 297.652 393.316 297.515 399.159C297.482 400.552 297.769 400.699 298.714 401.579C303.636 402.966 310.59 396.161 314.535 393.377C329.309 382.954 348.638 377.087 366.158 373.734C360.544 383.05 350.698 390.041 345.854 398.045C344.862 399.685 344.709 400.86 345.235 402.736C345.901 403.662 346.445 404.185 347.555 404.558C357.917 408.041 407.518 383.379 419.278 377.534C424.519 378.637 432.181 382.841 437.4 381.661C438.999 381.3 440.108 380.377 440.86 378.916C441.7 377.282 441.927 374.059 441.273 372.348C440.409 370.085 438.655 369.303 436.659 368.169C445.885 361.398 456.046 355.998 465.435 349.444C475.341 342.529 484.341 334.494 493.924 327.161C490.625 334.256 486.64 341.637 481.996 347.924C478.262 352.981 473.696 357.346 470.736 362.951C470.917 364.323 471.227 365.012 471.994 366.161C472.965 366.806 473.718 367.192 474.914 367.204C479.424 367.248 485.496 363.983 489.748 362.302C514.414 352.554 536.798 336.301 555.584 317.756C561.85 311.57 567.629 304.918 573.712 298.556Z"/>
	<path d="M614.711 357.693C621.691 356.678 629.971 357.294 636.93 358.327C657.665 361.405 682.204 372.575 694.804 389.935C697.485 393.628 701.016 398.724 700.283 403.463C699.798 404.076 699.652 404.509 698.857 404.735C697.539 405.112 695.958 404.983 694.777 404.262C692.189 402.68 689.441 399.277 687.13 397.169Q683.715 394.002 679.991 391.204Q676.268 388.406 672.276 386.007C669.654 384.363 666.726 382.908 663.921 381.593C643.054 371.811 618.021 369.285 595.808 375.98C591.584 377.253 587.891 379.894 583.717 381.248C582.096 381.774 580.963 381.795 579.464 380.881C577.986 379.98 576.718 378.009 576.547 376.282C576.356 374.347 577.128 372.624 578.296 371.126C585.796 361.506 603.495 358.936 614.711 357.693Z"/>
	<path fill="white" d="M499.844 494.683C499.906 494.671 499.968 494.653 500.031 494.647C517.121 492.928 535.441 497.606 548.937 508.325C552.226 528.358 558.056 547.41 572.329 562.498Q573.1 563.327 573.892 564.137Q574.684 564.947 575.495 565.737Q576.307 566.527 577.138 567.297Q577.968 568.067 578.818 568.816Q579.667 569.565 580.535 570.293Q581.403 571.02 582.288 571.727Q583.173 572.433 584.076 573.117Q584.978 573.802 585.897 574.463Q586.817 575.125 587.752 575.764Q588.687 576.403 589.638 577.018Q590.588 577.634 591.554 578.226Q592.519 578.818 593.499 579.386Q594.479 579.954 595.472 580.498Q596.466 581.041 597.473 581.56Q598.479 582.079 599.498 582.573Q600.517 583.067 601.548 583.536Q602.579 584.005 603.622 584.448Q604.664 584.891 605.717 585.308Q606.77 585.726 607.833 586.117Q608.896 586.508 609.968 586.873Q611.04 587.238 612.121 587.576Q613.202 587.915 614.29 588.226Q615.379 588.538 616.475 588.822Q617.572 589.107 618.675 589.364Q619.777 589.622 620.886 589.852Q621.995 590.082 623.11 590.285Q624.224 590.488 625.343 590.663Q626.462 590.839 627.585 590.986Q628.708 591.134 629.834 591.254Q630.96 591.373 632.089 591.465Q633.218 591.557 634.348 591.622Q635.479 591.686 636.611 591.722C660.377 592.287 684.418 584.301 701.696 567.685C721.613 548.531 729.542 526.06 730.01 498.836Q743.531 497.936 757.021 496.655C757.034 511.514 756.662 526.241 754.716 540.991C747.442 596.124 721.861 644.375 683.717 684.32C641.666 728.357 568.473 770.091 506.575 771.564C487.141 771.568 469.122 767.66 450.718 761.678C402.679 746.064 360.861 717.612 324.526 682.948C278.782 639.309 255.95 576.67 254.464 514.141C257.237 515.852 262.776 520.162 265.917 520.021L265.81 517.873L266.16 517.926C266.392 510.955 266.031 503.869 265.919 496.891Q279.215 497.199 292.443 498.574C292.269 521.842 300.279 542.391 315.722 559.749C332.27 578.35 357.418 590.163 382.243 591.442Q383.289 591.499 384.336 591.531Q385.384 591.562 386.432 591.567Q387.479 591.573 388.527 591.552Q389.574 591.532 390.621 591.485Q391.668 591.439 392.713 591.366Q393.758 591.294 394.802 591.196Q395.845 591.098 396.885 590.974Q397.926 590.85 398.963 590.701Q400 590.551 401.033 590.376Q402.066 590.201 403.094 590Q404.122 589.799 405.145 589.573Q406.169 589.347 407.186 589.096Q408.203 588.845 409.214 588.568Q410.224 588.292 411.228 587.991Q412.231 587.69 413.227 587.364Q414.223 587.038 415.21 586.687Q416.198 586.337 417.176 585.962Q418.154 585.587 419.123 585.188Q420.092 584.789 421.051 584.366Q422.01 583.944 422.958 583.497Q423.906 583.051 424.842 582.581Q425.779 582.112 426.703 581.619Q427.628 581.127 428.54 580.611Q429.453 580.096 430.352 579.558Q431.251 579.02 432.137 578.461Q433.023 577.901 433.894 577.319Q434.766 576.738 435.623 576.135Q436.479 575.532 437.321 574.908Q438.163 574.284 438.989 573.639Q439.815 572.995 440.625 572.33Q441.435 571.665 442.228 570.981Q443.021 570.296 443.797 569.592C462.886 552.159 470.677 529.261 471.79 504.01C482.44 499.712 488.019 496.22 499.844 494.683Z"/>
	<path d="M494.01 554.11C496.561 553.726 500.844 553.28 503.099 554.688C504.427 555.517 505.382 556.85 505.591 558.424C505.743 559.561 505.453 560.764 504.651 561.61C502.673 563.696 498.365 562.632 495.803 562.454C494.531 563.248 493.275 564.063 492.233 565.153C490.43 567.039 489.583 569.667 489.745 572.252C490.067 577.368 493.714 581.697 497.277 585.062C499.461 585.215 503.114 585.026 504.927 586.324C506.213 587.245 506.432 588.468 506.718 589.907C505.957 591.79 505.472 593.321 503.441 594.166C501.18 595.106 498.559 594.682 496.347 593.814C490.363 591.466 485.99 586.695 483.454 580.865C481.231 575.756 480.5 569.509 482.676 564.252C484.761 559.218 489.142 556.109 494.01 554.11Z"/>
	<path d="M582.258 632.663C585.001 632.235 587.223 631.996 589.567 633.75C591.483 635.184 592.49 637.394 592.779 639.727C594.122 650.553 583.138 669.259 576.602 677.469Q575.931 678.301 575.24 679.116Q574.549 679.931 573.838 680.729Q573.126 681.527 572.396 682.307Q571.665 683.087 570.915 683.848Q570.165 684.61 569.397 685.352Q568.628 686.095 567.842 686.818Q567.055 687.542 566.251 688.246Q565.446 688.949 564.625 689.633Q563.803 690.317 562.965 690.98Q562.127 691.643 561.273 692.285Q560.418 692.927 559.548 693.548Q558.678 694.168 557.793 694.767Q556.908 695.366 556.008 695.943Q555.109 696.52 554.195 697.074Q553.281 697.629 552.354 698.16Q551.427 698.692 550.487 699.2Q549.547 699.708 548.595 700.193Q547.642 700.678 546.678 701.14Q545.714 701.601 544.739 702.038Q543.764 702.475 542.778 702.888Q541.792 703.301 540.797 703.69Q539.801 704.078 538.796 704.441Q537.791 704.805 536.777 705.144Q535.763 705.482 534.742 705.796Q533.72 706.109 532.691 706.397Q531.661 706.685 530.625 706.947Q529.589 707.209 528.547 707.446Q527.505 707.683 526.457 707.893Q525.41 708.104 524.357 708.289Q523.304 708.473 522.247 708.632Q521.19 708.79 520.13 708.923Q519.069 709.055 518.006 709.161Q516.891 709.289 515.774 709.39Q514.656 709.491 513.536 709.564Q512.416 709.638 511.295 709.683Q510.174 709.729 509.052 709.747Q507.93 709.765 506.808 709.756Q505.685 709.746 504.564 709.709Q503.442 709.672 502.322 709.608Q501.202 709.543 500.083 709.451Q498.965 709.359 497.849 709.239Q496.733 709.12 495.621 708.973Q494.508 708.826 493.399 708.652Q492.291 708.477 491.187 708.276Q490.083 708.074 488.984 707.846Q487.886 707.617 486.793 707.361Q485.7 707.106 484.614 706.823Q483.528 706.541 482.449 706.232Q481.37 705.923 480.3 705.588Q479.229 705.252 478.166 704.891Q477.104 704.529 476.051 704.141Q474.998 703.754 473.955 703.34Q472.911 702.927 471.879 702.488Q470.846 702.049 469.824 701.585Q468.802 701.12 467.792 700.631Q466.783 700.142 465.785 699.628Q464.787 699.114 463.803 698.576Q462.818 698.038 461.847 697.475Q460.876 696.913 459.919 696.327Q458.962 695.741 458.019 695.132Q457.077 694.522 456.15 693.89Q455.223 693.257 454.312 692.602Q453.401 691.947 452.506 691.27Q451.611 690.593 450.733 689.894C439.584 679.602 428.926 666.997 425.873 651.683C424.95 647.054 424.175 640.528 427.095 636.512C429.253 633.543 432.034 633.424 435.45 633.457C441.092 633.511 446.858 634.587 452.466 635.215Q464.79 636.493 477.158 637.237Q490.31 638.055 503.487 638.178Q516.664 638.3 529.829 637.727Q542.994 637.154 556.11 635.887Q569.227 634.62 582.258 632.663Z"/>
	<path fill="white" d="M434.498 642.4C484.906 649.566 533.089 649.377 583.544 642.522C580.899 656.123 573.86 666.768 564.714 676.854C549.903 691.013 530.199 700.19 509.501 700.526C488.386 700.869 466.301 692.62 451.19 677.767C441.789 668.527 434.666 655.852 434.498 642.4Z"/>
</svg>
