<svg xmlns="http://www.w3.org/2000/svg" viewBox="0 0 207.5 385.56"><defs><style>.cls-1{fill:#231815;}.cls-2{fill:#ac8ec1;}</style></defs><g id="图层_2" data-name="图层 2"><g id="图层_1-2" data-name="图层 1"><path class="cls-1" d="M1.29,272.46a54,54,0,0,1-1.2-9.07C0,210.5-.08,157.61.08,104.72.23,54.24,33,13.66,82.26,2.43c61.45-14,124.05,34.4,124.88,97.44.71,55,.15,110,.19,164.92,0,5.58-1.3,10.31-6.85,12.91-6,2.82-9.93-.75-13.69-4.49-8.68-8.63-17.16-17.46-25.93-26-7.51-7.32-11-7.21-18.37.1-8,7.87-15.82,15.86-23.79,23.74-10.77,10.65-19.37,10.61-30.25-.15-8-7.87-15.78-15.9-23.79-23.73-7.4-7.25-11.19-7.23-18.42,0-9.05,9-17.9,18.19-27,27.1-6.62,6.45-11.08,6-17.91-1.76M57.81,82.14c-11,4.2-14.52,8.91-14.69,20.29-.11,7.55-.06,15.11,0,22.66.09,13.27,7.44,21.65,19.14,21.94,11.46.28,20.18-9,20.41-22q.21-12.09-.22-24.19C82,88.42,71.78,80.29,57.81,82.14m95.13,1c-14.95-4.31-26.24,2-27.85,16.64a140.25,140.25,0,0,0,.11,29.47,19.49,19.49,0,0,0,21,17.73c10.7-.82,17.9-8.92,18.08-20.53.13-8,0-16.09,0-24.13S161.43,87.69,152.94,83.17Z"/><path class="cls-2" d="M75.61,328.44c21.56,0,42.35,0,63.15,0,5,0,10.15-.22,12.79,5.26s-1.6,8.83-4.73,12Q129.39,363.58,111.57,381c-6.26,6.11-9.66,6-15.91-.11q-17.52-17.21-34.74-34.73c-3.42-3.46-7.78-7-5.18-12.7,2.51-5.55,7.88-5.09,12.86-5C70.68,328.46,72.76,328.44,75.61,328.44Z"/></g></g></svg>